<?xml version="1.0" encoding="utf-8" standalone="no"?>
<!DOCTYPE svg PUBLIC "-//W3C//DTD SVG 1.1//EN"
  "http://www.w3.org/Graphics/SVG/1.1/DTD/svg11.dtd">
<!-- Created with matplotlib (https://matplotlib.org/) -->
<svg height="288pt" version="1.1" viewBox="0 0 432 288" width="432pt" xmlns="http://www.w3.org/2000/svg" xmlns:xlink="http://www.w3.org/1999/xlink">
 <defs>
  <style type="text/css">
*{stroke-linecap:butt;stroke-linejoin:round;}
  </style>
 </defs>
 <g id="figure_1">
  <g id="patch_1">
   <path d="M 0 288 
L 432 288 
L 432 0 
L 0 0 
z
" style="fill:none;"/>
  </g>
  <g id="axes_1">
   <g id="patch_2">
    <path d="M 49.16 246.04 
L 421.2 246.04 
L 421.2 28.32 
L 49.16 28.32 
z
" style="fill:none;"/>
   </g>
   <g id="matplotlib.axis_1">
    <g id="xtick_1">
     <g id="line2d_1">
      <defs>
       <path d="M 0 0 
L 0 3.5 
" id="m80cc94e86e" style="stroke:#000000;stroke-width:0.8;"/>
      </defs>
      <g>
       <use style="stroke:#000000;stroke-width:0.8;" x="59.494444" xlink:href="#m80cc94e86e" y="246.04"/>
      </g>
     </g>
     <g id="text_1">
      <!-- 10 -->
      <defs>
       <path d="M 12.40625 8.296875 
L 28.515625 8.296875 
L 28.515625 63.921875 
L 10.984375 60.40625 
L 10.984375 69.390625 
L 28.421875 72.90625 
L 38.28125 72.90625 
L 38.28125 8.296875 
L 54.390625 8.296875 
L 54.390625 0 
L 12.40625 0 
z
" id="DejaVuSans-49"/>
       <path d="M 31.78125 66.40625 
Q 24.171875 66.40625 20.328125 58.90625 
Q 16.5 51.421875 16.5 36.375 
Q 16.5 21.390625 20.328125 13.890625 
Q 24.171875 6.390625 31.78125 6.390625 
Q 39.453125 6.390625 43.28125 13.890625 
Q 47.125 21.390625 47.125 36.375 
Q 47.125 51.421875 43.28125 58.90625 
Q 39.453125 66.40625 31.78125 66.40625 
z
M 31.78125 74.21875 
Q 44.046875 74.21875 50.515625 64.515625 
Q 56.984375 54.828125 56.984375 36.375 
Q 56.984375 17.96875 50.515625 8.265625 
Q 44.046875 -1.421875 31.78125 -1.421875 
Q 19.53125 -1.421875 13.0625 8.265625 
Q 6.59375 17.96875 6.59375 36.375 
Q 6.59375 54.828125 13.0625 64.515625 
Q 19.53125 74.21875 31.78125 74.21875 
z
" id="DejaVuSans-48"/>
      </defs>
      <g transform="translate(53.131944 260.638438)scale(0.1 -0.1)">
       <use xlink:href="#DejaVuSans-49"/>
       <use x="63.623047" xlink:href="#DejaVuSans-48"/>
      </g>
     </g>
    </g>
    <g id="xtick_2">
     <g id="line2d_2">
      <g>
       <use style="stroke:#000000;stroke-width:0.8;" x="80.163333" xlink:href="#m80cc94e86e" y="246.04"/>
      </g>
     </g>
     <g id="text_2">
      <!-- 15 -->
      <defs>
       <path d="M 10.796875 72.90625 
L 49.515625 72.90625 
L 49.515625 64.59375 
L 19.828125 64.59375 
L 19.828125 46.734375 
Q 21.96875 47.46875 24.109375 47.828125 
Q 26.265625 48.1875 28.421875 48.1875 
Q 40.625 48.1875 47.75 41.5 
Q 54.890625 34.8125 54.890625 23.390625 
Q 54.890625 11.625 47.5625 5.09375 
Q 40.234375 -1.421875 26.90625 -1.421875 
Q 22.3125 -1.421875 17.546875 -0.640625 
Q 12.796875 0.140625 7.71875 1.703125 
L 7.71875 11.625 
Q 12.109375 9.234375 16.796875 8.0625 
Q 21.484375 6.890625 26.703125 6.890625 
Q 35.15625 6.890625 40.078125 11.328125 
Q 45.015625 15.765625 45.015625 23.390625 
Q 45.015625 31 40.078125 35.4375 
Q 35.15625 39.890625 26.703125 39.890625 
Q 22.75 39.890625 18.8125 39.015625 
Q 14.890625 38.140625 10.796875 36.28125 
z
" id="DejaVuSans-53"/>
      </defs>
      <g transform="translate(73.800833 260.638438)scale(0.1 -0.1)">
       <use xlink:href="#DejaVuSans-49"/>
       <use x="63.623047" xlink:href="#DejaVuSans-53"/>
      </g>
     </g>
    </g>
    <g id="xtick_3">
     <g id="line2d_3">
      <g>
       <use style="stroke:#000000;stroke-width:0.8;" x="100.832222" xlink:href="#m80cc94e86e" y="246.04"/>
      </g>
     </g>
     <g id="text_3">
      <!-- 20 -->
      <defs>
       <path d="M 19.1875 8.296875 
L 53.609375 8.296875 
L 53.609375 0 
L 7.328125 0 
L 7.328125 8.296875 
Q 12.9375 14.109375 22.625 23.890625 
Q 32.328125 33.6875 34.8125 36.53125 
Q 39.546875 41.84375 41.421875 45.53125 
Q 43.3125 49.21875 43.3125 52.78125 
Q 43.3125 58.59375 39.234375 62.25 
Q 35.15625 65.921875 28.609375 65.921875 
Q 23.96875 65.921875 18.8125 64.3125 
Q 13.671875 62.703125 7.8125 59.421875 
L 7.8125 69.390625 
Q 13.765625 71.78125 18.9375 73 
Q 24.125 74.21875 28.421875 74.21875 
Q 39.75 74.21875 46.484375 68.546875 
Q 53.21875 62.890625 53.21875 53.421875 
Q 53.21875 48.921875 51.53125 44.890625 
Q 49.859375 40.875 45.40625 35.40625 
Q 44.1875 33.984375 37.640625 27.21875 
Q 31.109375 20.453125 19.1875 8.296875 
z
" id="DejaVuSans-50"/>
      </defs>
      <g transform="translate(94.469722 260.638438)scale(0.1 -0.1)">
       <use xlink:href="#DejaVuSans-50"/>
       <use x="63.623047" xlink:href="#DejaVuSans-48"/>
      </g>
     </g>
    </g>
    <g id="xtick_4">
     <g id="line2d_4">
      <g>
       <use style="stroke:#000000;stroke-width:0.8;" x="121.501111" xlink:href="#m80cc94e86e" y="246.04"/>
      </g>
     </g>
     <g id="text_4">
      <!-- 25 -->
      <g transform="translate(115.138611 260.638438)scale(0.1 -0.1)">
       <use xlink:href="#DejaVuSans-50"/>
       <use x="63.623047" xlink:href="#DejaVuSans-53"/>
      </g>
     </g>
    </g>
    <g id="xtick_5">
     <g id="line2d_5">
      <g>
       <use style="stroke:#000000;stroke-width:0.8;" x="142.17" xlink:href="#m80cc94e86e" y="246.04"/>
      </g>
     </g>
     <g id="text_5">
      <!-- 30 -->
      <defs>
       <path d="M 40.578125 39.3125 
Q 47.65625 37.796875 51.625 33 
Q 55.609375 28.21875 55.609375 21.1875 
Q 55.609375 10.40625 48.1875 4.484375 
Q 40.765625 -1.421875 27.09375 -1.421875 
Q 22.515625 -1.421875 17.65625 -0.515625 
Q 12.796875 0.390625 7.625 2.203125 
L 7.625 11.71875 
Q 11.71875 9.328125 16.59375 8.109375 
Q 21.484375 6.890625 26.8125 6.890625 
Q 36.078125 6.890625 40.9375 10.546875 
Q 45.796875 14.203125 45.796875 21.1875 
Q 45.796875 27.640625 41.28125 31.265625 
Q 36.765625 34.90625 28.71875 34.90625 
L 20.21875 34.90625 
L 20.21875 43.015625 
L 29.109375 43.015625 
Q 36.375 43.015625 40.234375 45.921875 
Q 44.09375 48.828125 44.09375 54.296875 
Q 44.09375 59.90625 40.109375 62.90625 
Q 36.140625 65.921875 28.71875 65.921875 
Q 24.65625 65.921875 20.015625 65.03125 
Q 15.375 64.15625 9.8125 62.3125 
L 9.8125 71.09375 
Q 15.4375 72.65625 20.34375 73.4375 
Q 25.25 74.21875 29.59375 74.21875 
Q 40.828125 74.21875 47.359375 69.109375 
Q 53.90625 64.015625 53.90625 55.328125 
Q 53.90625 49.265625 50.4375 45.09375 
Q 46.96875 40.921875 40.578125 39.3125 
z
" id="DejaVuSans-51"/>
      </defs>
      <g transform="translate(135.8075 260.638438)scale(0.1 -0.1)">
       <use xlink:href="#DejaVuSans-51"/>
       <use x="63.623047" xlink:href="#DejaVuSans-48"/>
      </g>
     </g>
    </g>
    <g id="xtick_6">
     <g id="line2d_6">
      <g>
       <use style="stroke:#000000;stroke-width:0.8;" x="162.838889" xlink:href="#m80cc94e86e" y="246.04"/>
      </g>
     </g>
     <g id="text_6">
      <!-- 35 -->
      <g transform="translate(156.476389 260.638438)scale(0.1 -0.1)">
       <use xlink:href="#DejaVuSans-51"/>
       <use x="63.623047" xlink:href="#DejaVuSans-53"/>
      </g>
     </g>
    </g>
    <g id="xtick_7">
     <g id="line2d_7">
      <g>
       <use style="stroke:#000000;stroke-width:0.8;" x="183.507778" xlink:href="#m80cc94e86e" y="246.04"/>
      </g>
     </g>
     <g id="text_7">
      <!-- 40 -->
      <defs>
       <path d="M 37.796875 64.3125 
L 12.890625 25.390625 
L 37.796875 25.390625 
z
M 35.203125 72.90625 
L 47.609375 72.90625 
L 47.609375 25.390625 
L 58.015625 25.390625 
L 58.015625 17.1875 
L 47.609375 17.1875 
L 47.609375 0 
L 37.796875 0 
L 37.796875 17.1875 
L 4.890625 17.1875 
L 4.890625 26.703125 
z
" id="DejaVuSans-52"/>
      </defs>
      <g transform="translate(177.145278 260.638438)scale(0.1 -0.1)">
       <use xlink:href="#DejaVuSans-52"/>
       <use x="63.623047" xlink:href="#DejaVuSans-48"/>
      </g>
     </g>
    </g>
    <g id="xtick_8">
     <g id="line2d_8">
      <g>
       <use style="stroke:#000000;stroke-width:0.8;" x="204.176667" xlink:href="#m80cc94e86e" y="246.04"/>
      </g>
     </g>
     <g id="text_8">
      <!-- 45 -->
      <g transform="translate(197.814167 260.638438)scale(0.1 -0.1)">
       <use xlink:href="#DejaVuSans-52"/>
       <use x="63.623047" xlink:href="#DejaVuSans-53"/>
      </g>
     </g>
    </g>
    <g id="xtick_9">
     <g id="line2d_9">
      <g>
       <use style="stroke:#000000;stroke-width:0.8;" x="224.845556" xlink:href="#m80cc94e86e" y="246.04"/>
      </g>
     </g>
     <g id="text_9">
      <!-- 50 -->
      <g transform="translate(218.483056 260.638438)scale(0.1 -0.1)">
       <use xlink:href="#DejaVuSans-53"/>
       <use x="63.623047" xlink:href="#DejaVuSans-48"/>
      </g>
     </g>
    </g>
    <g id="xtick_10">
     <g id="line2d_10">
      <g>
       <use style="stroke:#000000;stroke-width:0.8;" x="245.514444" xlink:href="#m80cc94e86e" y="246.04"/>
      </g>
     </g>
     <g id="text_10">
      <!-- 55 -->
      <g transform="translate(239.151944 260.638438)scale(0.1 -0.1)">
       <use xlink:href="#DejaVuSans-53"/>
       <use x="63.623047" xlink:href="#DejaVuSans-53"/>
      </g>
     </g>
    </g>
    <g id="xtick_11">
     <g id="line2d_11">
      <g>
       <use style="stroke:#000000;stroke-width:0.8;" x="266.183333" xlink:href="#m80cc94e86e" y="246.04"/>
      </g>
     </g>
     <g id="text_11">
      <!-- 60 -->
      <defs>
       <path d="M 33.015625 40.375 
Q 26.375 40.375 22.484375 35.828125 
Q 18.609375 31.296875 18.609375 23.390625 
Q 18.609375 15.53125 22.484375 10.953125 
Q 26.375 6.390625 33.015625 6.390625 
Q 39.65625 6.390625 43.53125 10.953125 
Q 47.40625 15.53125 47.40625 23.390625 
Q 47.40625 31.296875 43.53125 35.828125 
Q 39.65625 40.375 33.015625 40.375 
z
M 52.59375 71.296875 
L 52.59375 62.3125 
Q 48.875 64.0625 45.09375 64.984375 
Q 41.3125 65.921875 37.59375 65.921875 
Q 27.828125 65.921875 22.671875 59.328125 
Q 17.53125 52.734375 16.796875 39.40625 
Q 19.671875 43.65625 24.015625 45.921875 
Q 28.375 48.1875 33.59375 48.1875 
Q 44.578125 48.1875 50.953125 41.515625 
Q 57.328125 34.859375 57.328125 23.390625 
Q 57.328125 12.15625 50.6875 5.359375 
Q 44.046875 -1.421875 33.015625 -1.421875 
Q 20.359375 -1.421875 13.671875 8.265625 
Q 6.984375 17.96875 6.984375 36.375 
Q 6.984375 53.65625 15.1875 63.9375 
Q 23.390625 74.21875 37.203125 74.21875 
Q 40.921875 74.21875 44.703125 73.484375 
Q 48.484375 72.75 52.59375 71.296875 
z
" id="DejaVuSans-54"/>
      </defs>
      <g transform="translate(259.820833 260.638438)scale(0.1 -0.1)">
       <use xlink:href="#DejaVuSans-54"/>
       <use x="63.623047" xlink:href="#DejaVuSans-48"/>
      </g>
     </g>
    </g>
    <g id="xtick_12">
     <g id="line2d_12">
      <g>
       <use style="stroke:#000000;stroke-width:0.8;" x="286.852222" xlink:href="#m80cc94e86e" y="246.04"/>
      </g>
     </g>
     <g id="text_12">
      <!-- 65 -->
      <g transform="translate(280.489722 260.638438)scale(0.1 -0.1)">
       <use xlink:href="#DejaVuSans-54"/>
       <use x="63.623047" xlink:href="#DejaVuSans-53"/>
      </g>
     </g>
    </g>
    <g id="xtick_13">
     <g id="line2d_13">
      <g>
       <use style="stroke:#000000;stroke-width:0.8;" x="307.521111" xlink:href="#m80cc94e86e" y="246.04"/>
      </g>
     </g>
     <g id="text_13">
      <!-- 70 -->
      <defs>
       <path d="M 8.203125 72.90625 
L 55.078125 72.90625 
L 55.078125 68.703125 
L 28.609375 0 
L 18.3125 0 
L 43.21875 64.59375 
L 8.203125 64.59375 
z
" id="DejaVuSans-55"/>
      </defs>
      <g transform="translate(301.158611 260.638438)scale(0.1 -0.1)">
       <use xlink:href="#DejaVuSans-55"/>
       <use x="63.623047" xlink:href="#DejaVuSans-48"/>
      </g>
     </g>
    </g>
    <g id="xtick_14">
     <g id="line2d_14">
      <g>
       <use style="stroke:#000000;stroke-width:0.8;" x="328.19" xlink:href="#m80cc94e86e" y="246.04"/>
      </g>
     </g>
     <g id="text_14">
      <!-- 75 -->
      <g transform="translate(321.8275 260.638438)scale(0.1 -0.1)">
       <use xlink:href="#DejaVuSans-55"/>
       <use x="63.623047" xlink:href="#DejaVuSans-53"/>
      </g>
     </g>
    </g>
    <g id="xtick_15">
     <g id="line2d_15">
      <g>
       <use style="stroke:#000000;stroke-width:0.8;" x="348.858889" xlink:href="#m80cc94e86e" y="246.04"/>
      </g>
     </g>
     <g id="text_15">
      <!-- 80 -->
      <defs>
       <path d="M 31.78125 34.625 
Q 24.75 34.625 20.71875 30.859375 
Q 16.703125 27.09375 16.703125 20.515625 
Q 16.703125 13.921875 20.71875 10.15625 
Q 24.75 6.390625 31.78125 6.390625 
Q 38.8125 6.390625 42.859375 10.171875 
Q 46.921875 13.96875 46.921875 20.515625 
Q 46.921875 27.09375 42.890625 30.859375 
Q 38.875 34.625 31.78125 34.625 
z
M 21.921875 38.8125 
Q 15.578125 40.375 12.03125 44.71875 
Q 8.5 49.078125 8.5 55.328125 
Q 8.5 64.0625 14.71875 69.140625 
Q 20.953125 74.21875 31.78125 74.21875 
Q 42.671875 74.21875 48.875 69.140625 
Q 55.078125 64.0625 55.078125 55.328125 
Q 55.078125 49.078125 51.53125 44.71875 
Q 48 40.375 41.703125 38.8125 
Q 48.828125 37.15625 52.796875 32.3125 
Q 56.78125 27.484375 56.78125 20.515625 
Q 56.78125 9.90625 50.3125 4.234375 
Q 43.84375 -1.421875 31.78125 -1.421875 
Q 19.734375 -1.421875 13.25 4.234375 
Q 6.78125 9.90625 6.78125 20.515625 
Q 6.78125 27.484375 10.78125 32.3125 
Q 14.796875 37.15625 21.921875 38.8125 
z
M 18.3125 54.390625 
Q 18.3125 48.734375 21.84375 45.5625 
Q 25.390625 42.390625 31.78125 42.390625 
Q 38.140625 42.390625 41.71875 45.5625 
Q 45.3125 48.734375 45.3125 54.390625 
Q 45.3125 60.0625 41.71875 63.234375 
Q 38.140625 66.40625 31.78125 66.40625 
Q 25.390625 66.40625 21.84375 63.234375 
Q 18.3125 60.0625 18.3125 54.390625 
z
" id="DejaVuSans-56"/>
      </defs>
      <g transform="translate(342.496389 260.638438)scale(0.1 -0.1)">
       <use xlink:href="#DejaVuSans-56"/>
       <use x="63.623047" xlink:href="#DejaVuSans-48"/>
      </g>
     </g>
    </g>
    <g id="xtick_16">
     <g id="line2d_16">
      <g>
       <use style="stroke:#000000;stroke-width:0.8;" x="369.527778" xlink:href="#m80cc94e86e" y="246.04"/>
      </g>
     </g>
     <g id="text_16">
      <!-- 85 -->
      <g transform="translate(363.165278 260.638438)scale(0.1 -0.1)">
       <use xlink:href="#DejaVuSans-56"/>
       <use x="63.623047" xlink:href="#DejaVuSans-53"/>
      </g>
     </g>
    </g>
    <g id="xtick_17">
     <g id="line2d_17">
      <g>
       <use style="stroke:#000000;stroke-width:0.8;" x="390.196667" xlink:href="#m80cc94e86e" y="246.04"/>
      </g>
     </g>
     <g id="text_17">
      <!-- 90 -->
      <defs>
       <path d="M 10.984375 1.515625 
L 10.984375 10.5 
Q 14.703125 8.734375 18.5 7.8125 
Q 22.3125 6.890625 25.984375 6.890625 
Q 35.75 6.890625 40.890625 13.453125 
Q 46.046875 20.015625 46.78125 33.40625 
Q 43.953125 29.203125 39.59375 26.953125 
Q 35.25 24.703125 29.984375 24.703125 
Q 19.046875 24.703125 12.671875 31.3125 
Q 6.296875 37.9375 6.296875 49.421875 
Q 6.296875 60.640625 12.9375 67.421875 
Q 19.578125 74.21875 30.609375 74.21875 
Q 43.265625 74.21875 49.921875 64.515625 
Q 56.59375 54.828125 56.59375 36.375 
Q 56.59375 19.140625 48.40625 8.859375 
Q 40.234375 -1.421875 26.421875 -1.421875 
Q 22.703125 -1.421875 18.890625 -0.6875 
Q 15.09375 0.046875 10.984375 1.515625 
z
M 30.609375 32.421875 
Q 37.25 32.421875 41.125 36.953125 
Q 45.015625 41.5 45.015625 49.421875 
Q 45.015625 57.28125 41.125 61.84375 
Q 37.25 66.40625 30.609375 66.40625 
Q 23.96875 66.40625 20.09375 61.84375 
Q 16.21875 57.28125 16.21875 49.421875 
Q 16.21875 41.5 20.09375 36.953125 
Q 23.96875 32.421875 30.609375 32.421875 
z
" id="DejaVuSans-57"/>
      </defs>
      <g transform="translate(383.834167 260.638438)scale(0.1 -0.1)">
       <use xlink:href="#DejaVuSans-57"/>
       <use x="63.623047" xlink:href="#DejaVuSans-48"/>
      </g>
     </g>
    </g>
    <g id="xtick_18">
     <g id="line2d_18">
      <g>
       <use style="stroke:#000000;stroke-width:0.8;" x="410.865556" xlink:href="#m80cc94e86e" y="246.04"/>
      </g>
     </g>
     <g id="text_18">
      <!-- 95 -->
      <g transform="translate(404.503056 260.638438)scale(0.1 -0.1)">
       <use xlink:href="#DejaVuSans-57"/>
       <use x="63.623047" xlink:href="#DejaVuSans-53"/>
      </g>
     </g>
    </g>
    <g id="text_19">
     <!-- $N$ -->
     <defs>
      <path d="M 16.890625 72.90625 
L 30.171875 72.90625 
L 50.296875 10.40625 
L 62.5 72.90625 
L 72.125 72.90625 
L 57.90625 0 
L 44.578125 0 
L 24.515625 62.890625 
L 12.3125 0 
L 2.6875 0 
z
" id="DejaVuSans-Oblique-78"/>
     </defs>
     <g transform="translate(231.43 274.316562)scale(0.1 -0.1)">
      <use transform="translate(0 0.09375)" xlink:href="#DejaVuSans-Oblique-78"/>
     </g>
    </g>
   </g>
   <g id="matplotlib.axis_2">
    <g id="ytick_1">
     <g id="line2d_19">
      <defs>
       <path d="M 0 0 
L -3.5 0 
" id="ma1e6d18f45" style="stroke:#000000;stroke-width:0.8;"/>
      </defs>
      <g>
       <use style="stroke:#000000;stroke-width:0.8;" x="49.16" xlink:href="#ma1e6d18f45" y="246.04"/>
      </g>
     </g>
     <g id="text_20">
      <!-- 1.0 -->
      <defs>
       <path d="M 10.6875 12.40625 
L 21 12.40625 
L 21 0 
L 10.6875 0 
z
" id="DejaVuSans-46"/>
      </defs>
      <g transform="translate(26.256875 249.839219)scale(0.1 -0.1)">
       <use xlink:href="#DejaVuSans-49"/>
       <use x="63.623047" xlink:href="#DejaVuSans-46"/>
       <use x="95.410156" xlink:href="#DejaVuSans-48"/>
      </g>
     </g>
    </g>
    <g id="ytick_2">
     <g id="line2d_20">
      <g>
       <use style="stroke:#000000;stroke-width:0.8;" x="49.16" xlink:href="#ma1e6d18f45" y="209.753333"/>
      </g>
     </g>
     <g id="text_21">
      <!-- 1.5 -->
      <g transform="translate(26.256875 213.552552)scale(0.1 -0.1)">
       <use xlink:href="#DejaVuSans-49"/>
       <use x="63.623047" xlink:href="#DejaVuSans-46"/>
       <use x="95.410156" xlink:href="#DejaVuSans-53"/>
      </g>
     </g>
    </g>
    <g id="ytick_3">
     <g id="line2d_21">
      <g>
       <use style="stroke:#000000;stroke-width:0.8;" x="49.16" xlink:href="#ma1e6d18f45" y="173.466667"/>
      </g>
     </g>
     <g id="text_22">
      <!-- 2.0 -->
      <g transform="translate(26.256875 177.265885)scale(0.1 -0.1)">
       <use xlink:href="#DejaVuSans-50"/>
       <use x="63.623047" xlink:href="#DejaVuSans-46"/>
       <use x="95.410156" xlink:href="#DejaVuSans-48"/>
      </g>
     </g>
    </g>
    <g id="ytick_4">
     <g id="line2d_22">
      <g>
       <use style="stroke:#000000;stroke-width:0.8;" x="49.16" xlink:href="#ma1e6d18f45" y="137.18"/>
      </g>
     </g>
     <g id="text_23">
      <!-- 2.5 -->
      <g transform="translate(26.256875 140.979219)scale(0.1 -0.1)">
       <use xlink:href="#DejaVuSans-50"/>
       <use x="63.623047" xlink:href="#DejaVuSans-46"/>
       <use x="95.410156" xlink:href="#DejaVuSans-53"/>
      </g>
     </g>
    </g>
    <g id="ytick_5">
     <g id="line2d_23">
      <g>
       <use style="stroke:#000000;stroke-width:0.8;" x="49.16" xlink:href="#ma1e6d18f45" y="100.893333"/>
      </g>
     </g>
     <g id="text_24">
      <!-- 3.0 -->
      <g transform="translate(26.256875 104.692552)scale(0.1 -0.1)">
       <use xlink:href="#DejaVuSans-51"/>
       <use x="63.623047" xlink:href="#DejaVuSans-46"/>
       <use x="95.410156" xlink:href="#DejaVuSans-48"/>
      </g>
     </g>
    </g>
    <g id="ytick_6">
     <g id="line2d_24">
      <g>
       <use style="stroke:#000000;stroke-width:0.8;" x="49.16" xlink:href="#ma1e6d18f45" y="64.606667"/>
      </g>
     </g>
     <g id="text_25">
      <!-- 3.5 -->
      <g transform="translate(26.256875 68.405885)scale(0.1 -0.1)">
       <use xlink:href="#DejaVuSans-51"/>
       <use x="63.623047" xlink:href="#DejaVuSans-46"/>
       <use x="95.410156" xlink:href="#DejaVuSans-53"/>
      </g>
     </g>
    </g>
    <g id="ytick_7">
     <g id="line2d_25">
      <g>
       <use style="stroke:#000000;stroke-width:0.8;" x="49.16" xlink:href="#ma1e6d18f45" y="28.32"/>
      </g>
     </g>
     <g id="text_26">
      <!-- 4.0 -->
      <g transform="translate(26.256875 32.119219)scale(0.1 -0.1)">
       <use xlink:href="#DejaVuSans-52"/>
       <use x="63.623047" xlink:href="#DejaVuSans-46"/>
       <use x="95.410156" xlink:href="#DejaVuSans-48"/>
      </g>
     </g>
    </g>
    <g id="text_27">
     <!-- Distribution of $Q(K)$ -->
     <defs>
      <path d="M 19.671875 64.796875 
L 19.671875 8.109375 
L 31.59375 8.109375 
Q 46.6875 8.109375 53.6875 14.9375 
Q 60.6875 21.78125 60.6875 36.53125 
Q 60.6875 51.171875 53.6875 57.984375 
Q 46.6875 64.796875 31.59375 64.796875 
z
M 9.8125 72.90625 
L 30.078125 72.90625 
Q 51.265625 72.90625 61.171875 64.09375 
Q 71.09375 55.28125 71.09375 36.53125 
Q 71.09375 17.671875 61.125 8.828125 
Q 51.171875 0 30.078125 0 
L 9.8125 0 
z
" id="DejaVuSans-68"/>
      <path d="M 9.421875 54.6875 
L 18.40625 54.6875 
L 18.40625 0 
L 9.421875 0 
z
M 9.421875 75.984375 
L 18.40625 75.984375 
L 18.40625 64.59375 
L 9.421875 64.59375 
z
" id="DejaVuSans-105"/>
      <path d="M 44.28125 53.078125 
L 44.28125 44.578125 
Q 40.484375 46.53125 36.375 47.5 
Q 32.28125 48.484375 27.875 48.484375 
Q 21.1875 48.484375 17.84375 46.4375 
Q 14.5 44.390625 14.5 40.28125 
Q 14.5 37.15625 16.890625 35.375 
Q 19.28125 33.59375 26.515625 31.984375 
L 29.59375 31.296875 
Q 39.15625 29.25 43.1875 25.515625 
Q 47.21875 21.78125 47.21875 15.09375 
Q 47.21875 7.46875 41.1875 3.015625 
Q 35.15625 -1.421875 24.609375 -1.421875 
Q 20.21875 -1.421875 15.453125 -0.5625 
Q 10.6875 0.296875 5.421875 2 
L 5.421875 11.28125 
Q 10.40625 8.6875 15.234375 7.390625 
Q 20.0625 6.109375 24.8125 6.109375 
Q 31.15625 6.109375 34.5625 8.28125 
Q 37.984375 10.453125 37.984375 14.40625 
Q 37.984375 18.0625 35.515625 20.015625 
Q 33.0625 21.96875 24.703125 23.78125 
L 21.578125 24.515625 
Q 13.234375 26.265625 9.515625 29.90625 
Q 5.8125 33.546875 5.8125 39.890625 
Q 5.8125 47.609375 11.28125 51.796875 
Q 16.75 56 26.8125 56 
Q 31.78125 56 36.171875 55.265625 
Q 40.578125 54.546875 44.28125 53.078125 
z
" id="DejaVuSans-115"/>
      <path d="M 18.3125 70.21875 
L 18.3125 54.6875 
L 36.8125 54.6875 
L 36.8125 47.703125 
L 18.3125 47.703125 
L 18.3125 18.015625 
Q 18.3125 11.328125 20.140625 9.421875 
Q 21.96875 7.515625 27.59375 7.515625 
L 36.8125 7.515625 
L 36.8125 0 
L 27.59375 0 
Q 17.1875 0 13.234375 3.875 
Q 9.28125 7.765625 9.28125 18.015625 
L 9.28125 47.703125 
L 2.6875 47.703125 
L 2.6875 54.6875 
L 9.28125 54.6875 
L 9.28125 70.21875 
z
" id="DejaVuSans-116"/>
      <path d="M 41.109375 46.296875 
Q 39.59375 47.171875 37.8125 47.578125 
Q 36.03125 48 33.890625 48 
Q 26.265625 48 22.1875 43.046875 
Q 18.109375 38.09375 18.109375 28.8125 
L 18.109375 0 
L 9.078125 0 
L 9.078125 54.6875 
L 18.109375 54.6875 
L 18.109375 46.1875 
Q 20.953125 51.171875 25.484375 53.578125 
Q 30.03125 56 36.53125 56 
Q 37.453125 56 38.578125 55.875 
Q 39.703125 55.765625 41.0625 55.515625 
z
" id="DejaVuSans-114"/>
      <path d="M 48.6875 27.296875 
Q 48.6875 37.203125 44.609375 42.84375 
Q 40.53125 48.484375 33.40625 48.484375 
Q 26.265625 48.484375 22.1875 42.84375 
Q 18.109375 37.203125 18.109375 27.296875 
Q 18.109375 17.390625 22.1875 11.75 
Q 26.265625 6.109375 33.40625 6.109375 
Q 40.53125 6.109375 44.609375 11.75 
Q 48.6875 17.390625 48.6875 27.296875 
z
M 18.109375 46.390625 
Q 20.953125 51.265625 25.265625 53.625 
Q 29.59375 56 35.59375 56 
Q 45.5625 56 51.78125 48.09375 
Q 58.015625 40.1875 58.015625 27.296875 
Q 58.015625 14.40625 51.78125 6.484375 
Q 45.5625 -1.421875 35.59375 -1.421875 
Q 29.59375 -1.421875 25.265625 0.953125 
Q 20.953125 3.328125 18.109375 8.203125 
L 18.109375 0 
L 9.078125 0 
L 9.078125 75.984375 
L 18.109375 75.984375 
z
" id="DejaVuSans-98"/>
      <path d="M 8.5 21.578125 
L 8.5 54.6875 
L 17.484375 54.6875 
L 17.484375 21.921875 
Q 17.484375 14.15625 20.5 10.265625 
Q 23.53125 6.390625 29.59375 6.390625 
Q 36.859375 6.390625 41.078125 11.03125 
Q 45.3125 15.671875 45.3125 23.6875 
L 45.3125 54.6875 
L 54.296875 54.6875 
L 54.296875 0 
L 45.3125 0 
L 45.3125 8.40625 
Q 42.046875 3.421875 37.71875 1 
Q 33.40625 -1.421875 27.6875 -1.421875 
Q 18.265625 -1.421875 13.375 4.4375 
Q 8.5 10.296875 8.5 21.578125 
z
M 31.109375 56 
z
" id="DejaVuSans-117"/>
      <path d="M 30.609375 48.390625 
Q 23.390625 48.390625 19.1875 42.75 
Q 14.984375 37.109375 14.984375 27.296875 
Q 14.984375 17.484375 19.15625 11.84375 
Q 23.34375 6.203125 30.609375 6.203125 
Q 37.796875 6.203125 41.984375 11.859375 
Q 46.1875 17.53125 46.1875 27.296875 
Q 46.1875 37.015625 41.984375 42.703125 
Q 37.796875 48.390625 30.609375 48.390625 
z
M 30.609375 56 
Q 42.328125 56 49.015625 48.375 
Q 55.71875 40.765625 55.71875 27.296875 
Q 55.71875 13.875 49.015625 6.21875 
Q 42.328125 -1.421875 30.609375 -1.421875 
Q 18.84375 -1.421875 12.171875 6.21875 
Q 5.515625 13.875 5.515625 27.296875 
Q 5.515625 40.765625 12.171875 48.375 
Q 18.84375 56 30.609375 56 
z
" id="DejaVuSans-111"/>
      <path d="M 54.890625 33.015625 
L 54.890625 0 
L 45.90625 0 
L 45.90625 32.71875 
Q 45.90625 40.484375 42.875 44.328125 
Q 39.84375 48.1875 33.796875 48.1875 
Q 26.515625 48.1875 22.3125 43.546875 
Q 18.109375 38.921875 18.109375 30.90625 
L 18.109375 0 
L 9.078125 0 
L 9.078125 54.6875 
L 18.109375 54.6875 
L 18.109375 46.1875 
Q 21.34375 51.125 25.703125 53.5625 
Q 30.078125 56 35.796875 56 
Q 45.21875 56 50.046875 50.171875 
Q 54.890625 44.34375 54.890625 33.015625 
z
" id="DejaVuSans-110"/>
      <path id="DejaVuSans-32"/>
      <path d="M 37.109375 75.984375 
L 37.109375 68.5 
L 28.515625 68.5 
Q 23.6875 68.5 21.796875 66.546875 
Q 19.921875 64.59375 19.921875 59.515625 
L 19.921875 54.6875 
L 34.71875 54.6875 
L 34.71875 47.703125 
L 19.921875 47.703125 
L 19.921875 0 
L 10.890625 0 
L 10.890625 47.703125 
L 2.296875 47.703125 
L 2.296875 54.6875 
L 10.890625 54.6875 
L 10.890625 58.5 
Q 10.890625 67.625 15.140625 71.796875 
Q 19.390625 75.984375 28.609375 75.984375 
z
" id="DejaVuSans-102"/>
      <path d="M 36.078125 -1.3125 
Q 35.546875 -1.375 34.953125 -1.390625 
Q 34.375 -1.421875 33.203125 -1.421875 
Q 19.53125 -1.421875 11.8125 6.421875 
Q 4.109375 14.265625 4.109375 28.078125 
Q 4.109375 36.234375 7.0625 44.4375 
Q 10.015625 52.640625 15.28125 59.1875 
Q 21.390625 66.703125 29.03125 70.453125 
Q 36.671875 74.21875 45.90625 74.21875 
Q 59.28125 74.21875 66.984375 66.328125 
Q 74.703125 58.453125 74.703125 44.828125 
Q 74.703125 30.125 66.640625 17.921875 
Q 58.59375 5.71875 45.609375 0.6875 
L 55.515625 -12.890625 
L 44.484375 -12.890625 
z
M 45.609375 66.21875 
Q 37.5 66.21875 31.296875 62.28125 
Q 25.09375 58.34375 20.515625 50.296875 
Q 17.578125 45.171875 16.03125 39.40625 
Q 14.5 33.640625 14.5 27.78125 
Q 14.5 17.625 19.359375 12.109375 
Q 24.21875 6.59375 33.109375 6.59375 
Q 41.109375 6.59375 47.375 10.5625 
Q 53.65625 14.546875 58.109375 22.40625 
Q 61.078125 27.6875 62.640625 33.46875 
Q 64.203125 39.265625 64.203125 45.015625 
Q 64.203125 55.125 59.3125 60.671875 
Q 54.4375 66.21875 45.609375 66.21875 
z
" id="DejaVuSans-Oblique-81"/>
      <path d="M 31 75.875 
Q 24.46875 64.65625 21.28125 53.65625 
Q 18.109375 42.671875 18.109375 31.390625 
Q 18.109375 20.125 21.3125 9.0625 
Q 24.515625 -2 31 -13.1875 
L 23.1875 -13.1875 
Q 15.875 -1.703125 12.234375 9.375 
Q 8.59375 20.453125 8.59375 31.390625 
Q 8.59375 42.28125 12.203125 53.3125 
Q 15.828125 64.359375 23.1875 75.875 
z
" id="DejaVuSans-40"/>
      <path d="M 16.890625 72.90625 
L 26.8125 72.90625 
L 20.796875 42.1875 
L 59.078125 72.90625 
L 72.21875 72.90625 
L 28.90625 38.09375 
L 60.59375 0 
L 48.578125 0 
L 19.484375 35.5 
L 12.59375 0 
L 2.6875 0 
z
" id="DejaVuSans-Oblique-75"/>
      <path d="M 8.015625 75.875 
L 15.828125 75.875 
Q 23.140625 64.359375 26.78125 53.3125 
Q 30.421875 42.28125 30.421875 31.390625 
Q 30.421875 20.453125 26.78125 9.375 
Q 23.140625 -1.703125 15.828125 -13.1875 
L 8.015625 -13.1875 
Q 14.5 -2 17.703125 9.0625 
Q 20.90625 20.125 20.90625 31.390625 
Q 20.90625 42.671875 17.703125 53.65625 
Q 14.5 64.65625 8.015625 75.875 
z
" id="DejaVuSans-41"/>
     </defs>
     <g transform="translate(20.177188 185.48)rotate(-90)scale(0.1 -0.1)">
      <use transform="translate(0 0.015625)" xlink:href="#DejaVuSans-68"/>
      <use transform="translate(77.001953 0.015625)" xlink:href="#DejaVuSans-105"/>
      <use transform="translate(104.785156 0.015625)" xlink:href="#DejaVuSans-115"/>
      <use transform="translate(156.884766 0.015625)" xlink:href="#DejaVuSans-116"/>
      <use transform="translate(196.09375 0.015625)" xlink:href="#DejaVuSans-114"/>
      <use transform="translate(237.207031 0.015625)" xlink:href="#DejaVuSans-105"/>
      <use transform="translate(264.990234 0.015625)" xlink:href="#DejaVuSans-98"/>
      <use transform="translate(328.466797 0.015625)" xlink:href="#DejaVuSans-117"/>
      <use transform="translate(391.845703 0.015625)" xlink:href="#DejaVuSans-116"/>
      <use transform="translate(431.054688 0.015625)" xlink:href="#DejaVuSans-105"/>
      <use transform="translate(458.837891 0.015625)" xlink:href="#DejaVuSans-111"/>
      <use transform="translate(520.019531 0.015625)" xlink:href="#DejaVuSans-110"/>
      <use transform="translate(583.398438 0.015625)" xlink:href="#DejaVuSans-32"/>
      <use transform="translate(615.185547 0.015625)" xlink:href="#DejaVuSans-111"/>
      <use transform="translate(676.367188 0.015625)" xlink:href="#DejaVuSans-102"/>
      <use transform="translate(711.572266 0.015625)" xlink:href="#DejaVuSans-32"/>
      <use transform="translate(743.359375 0.015625)" xlink:href="#DejaVuSans-Oblique-81"/>
      <use transform="translate(822.070312 0.015625)" xlink:href="#DejaVuSans-40"/>
      <use transform="translate(861.083984 0.015625)" xlink:href="#DejaVuSans-Oblique-75"/>
      <use transform="translate(926.660156 0.015625)" xlink:href="#DejaVuSans-41"/>
     </g>
    </g>
   </g>
   <g id="line2d_26">
    <path clip-path="url(#pd35bc16b94)" d="M 54.327222 239.109247 
L 64.661667 239.109247 
L 64.661667 235.683785 
L 54.327222 235.683785 
L 54.327222 239.109247 
" style="fill:none;stroke:#000000;stroke-linecap:square;"/>
   </g>
   <g id="line2d_27">
    <path clip-path="url(#pd35bc16b94)" d="M 59.494444 239.109247 
L 59.494444 242.382304 
" style="fill:none;stroke:#000000;stroke-linecap:square;"/>
   </g>
   <g id="line2d_28">
    <path clip-path="url(#pd35bc16b94)" d="M 59.494444 235.683785 
L 59.494444 233.717048 
" style="fill:none;stroke:#000000;stroke-linecap:square;"/>
   </g>
   <g id="line2d_29">
    <path clip-path="url(#pd35bc16b94)" d="M 56.910833 242.382304 
L 62.078056 242.382304 
" style="fill:none;stroke:#000000;stroke-linecap:square;"/>
   </g>
   <g id="line2d_30">
    <path clip-path="url(#pd35bc16b94)" d="M 56.910833 233.717048 
L 62.078056 233.717048 
" style="fill:none;stroke:#000000;stroke-linecap:square;"/>
   </g>
   <g id="line2d_31">
    <path clip-path="url(#pd35bc16b94)" d="M 74.996111 226.133135 
L 85.330556 226.133135 
L 85.330556 220.261952 
L 74.996111 220.261952 
L 74.996111 226.133135 
" style="fill:none;stroke:#000000;stroke-linecap:square;"/>
   </g>
   <g id="line2d_32">
    <path clip-path="url(#pd35bc16b94)" d="M 80.163333 226.133135 
L 80.163333 231.684995 
" style="fill:none;stroke:#000000;stroke-linecap:square;"/>
   </g>
   <g id="line2d_33">
    <path clip-path="url(#pd35bc16b94)" d="M 80.163333 220.261952 
L 80.163333 216.604256 
" style="fill:none;stroke:#000000;stroke-linecap:square;"/>
   </g>
   <g id="line2d_34">
    <path clip-path="url(#pd35bc16b94)" d="M 77.579722 231.684995 
L 82.746944 231.684995 
" style="fill:none;stroke:#000000;stroke-linecap:square;"/>
   </g>
   <g id="line2d_35">
    <path clip-path="url(#pd35bc16b94)" d="M 77.579722 216.604256 
L 82.746944 216.604256 
" style="fill:none;stroke:#000000;stroke-linecap:square;"/>
   </g>
   <g id="line2d_36">
    <path clip-path="url(#pd35bc16b94)" d="M 95.665 213.215081 
L 105.999444 213.215081 
L 105.999444 205.928719 
L 95.665 205.928719 
L 95.665 213.215081 
" style="fill:none;stroke:#000000;stroke-linecap:square;"/>
   </g>
   <g id="line2d_37">
    <path clip-path="url(#pd35bc16b94)" d="M 100.832222 213.215081 
L 100.832222 219.274955 
" style="fill:none;stroke:#000000;stroke-linecap:square;"/>
   </g>
   <g id="line2d_38">
    <path clip-path="url(#pd35bc16b94)" d="M 100.832222 205.928719 
L 100.832222 201.400143 
" style="fill:none;stroke:#000000;stroke-linecap:square;"/>
   </g>
   <g id="line2d_39">
    <path clip-path="url(#pd35bc16b94)" d="M 98.248611 219.274955 
L 103.415833 219.274955 
" style="fill:none;stroke:#000000;stroke-linecap:square;"/>
   </g>
   <g id="line2d_40">
    <path clip-path="url(#pd35bc16b94)" d="M 98.248611 201.400143 
L 103.415833 201.400143 
" style="fill:none;stroke:#000000;stroke-linecap:square;"/>
   </g>
   <g id="line2d_41">
    <path clip-path="url(#pd35bc16b94)" d="M 116.333889 201.501745 
L 126.668333 201.501745 
L 126.668333 193.337245 
L 116.333889 193.337245 
L 116.333889 201.501745 
" style="fill:none;stroke:#000000;stroke-linecap:square;"/>
   </g>
   <g id="line2d_42">
    <path clip-path="url(#pd35bc16b94)" d="M 121.501111 201.501745 
L 121.501111 208.59216 
" style="fill:none;stroke:#000000;stroke-linecap:square;"/>
   </g>
   <g id="line2d_43">
    <path clip-path="url(#pd35bc16b94)" d="M 121.501111 193.337245 
L 121.501111 188.133737 
" style="fill:none;stroke:#000000;stroke-linecap:square;"/>
   </g>
   <g id="line2d_44">
    <path clip-path="url(#pd35bc16b94)" d="M 118.9175 208.59216 
L 124.084722 208.59216 
" style="fill:none;stroke:#000000;stroke-linecap:square;"/>
   </g>
   <g id="line2d_45">
    <path clip-path="url(#pd35bc16b94)" d="M 118.9175 188.133737 
L 124.084722 188.133737 
" style="fill:none;stroke:#000000;stroke-linecap:square;"/>
   </g>
   <g id="line2d_46">
    <path clip-path="url(#pd35bc16b94)" d="M 137.002778 191.602743 
L 147.337222 191.602743 
L 147.337222 181.979519 
L 137.002778 181.979519 
L 137.002778 191.602743 
" style="fill:none;stroke:#000000;stroke-linecap:square;"/>
   </g>
   <g id="line2d_47">
    <path clip-path="url(#pd35bc16b94)" d="M 142.17 191.602743 
L 142.17 200.543777 
" style="fill:none;stroke:#000000;stroke-linecap:square;"/>
   </g>
   <g id="line2d_48">
    <path clip-path="url(#pd35bc16b94)" d="M 142.17 181.979519 
L 142.17 176.391372 
" style="fill:none;stroke:#000000;stroke-linecap:square;"/>
   </g>
   <g id="line2d_49">
    <path clip-path="url(#pd35bc16b94)" d="M 139.586389 200.543777 
L 144.753611 200.543777 
" style="fill:none;stroke:#000000;stroke-linecap:square;"/>
   </g>
   <g id="line2d_50">
    <path clip-path="url(#pd35bc16b94)" d="M 139.586389 176.391372 
L 144.753611 176.391372 
" style="fill:none;stroke:#000000;stroke-linecap:square;"/>
   </g>
   <g id="line2d_51">
    <path clip-path="url(#pd35bc16b94)" d="M 157.671667 182.095636 
L 168.006111 182.095636 
L 168.006111 170.454873 
L 157.671667 170.454873 
L 157.671667 182.095636 
" style="fill:none;stroke:#000000;stroke-linecap:square;"/>
   </g>
   <g id="line2d_52">
    <path clip-path="url(#pd35bc16b94)" d="M 162.838889 182.095636 
L 162.838889 190.710091 
" style="fill:none;stroke:#000000;stroke-linecap:square;"/>
   </g>
   <g id="line2d_53">
    <path clip-path="url(#pd35bc16b94)" d="M 162.838889 170.454873 
L 162.838889 163.320915 
" style="fill:none;stroke:#000000;stroke-linecap:square;"/>
   </g>
   <g id="line2d_54">
    <path clip-path="url(#pd35bc16b94)" d="M 160.255278 190.710091 
L 165.4225 190.710091 
" style="fill:none;stroke:#000000;stroke-linecap:square;"/>
   </g>
   <g id="line2d_55">
    <path clip-path="url(#pd35bc16b94)" d="M 160.255278 163.320915 
L 165.4225 163.320915 
" style="fill:none;stroke:#000000;stroke-linecap:square;"/>
   </g>
   <g id="line2d_56">
    <path clip-path="url(#pd35bc16b94)" d="M 178.340556 172.813507 
L 188.675 172.813507 
L 188.675 160.788105 
L 178.340556 160.788105 
L 178.340556 172.813507 
" style="fill:none;stroke:#000000;stroke-linecap:square;"/>
   </g>
   <g id="line2d_57">
    <path clip-path="url(#pd35bc16b94)" d="M 183.507778 172.813507 
L 183.507778 181.173955 
" style="fill:none;stroke:#000000;stroke-linecap:square;"/>
   </g>
   <g id="line2d_58">
    <path clip-path="url(#pd35bc16b94)" d="M 183.507778 160.788105 
L 183.507778 154.292792 
" style="fill:none;stroke:#000000;stroke-linecap:square;"/>
   </g>
   <g id="line2d_59">
    <path clip-path="url(#pd35bc16b94)" d="M 180.924167 181.173955 
L 186.091389 181.173955 
" style="fill:none;stroke:#000000;stroke-linecap:square;"/>
   </g>
   <g id="line2d_60">
    <path clip-path="url(#pd35bc16b94)" d="M 180.924167 154.292792 
L 186.091389 154.292792 
" style="fill:none;stroke:#000000;stroke-linecap:square;"/>
   </g>
   <g id="line2d_61">
    <path clip-path="url(#pd35bc16b94)" d="M 199.009444 164.859469 
L 209.343889 164.859469 
L 209.343889 152.427657 
L 199.009444 152.427657 
L 199.009444 164.859469 
" style="fill:none;stroke:#000000;stroke-linecap:square;"/>
   </g>
   <g id="line2d_62">
    <path clip-path="url(#pd35bc16b94)" d="M 204.176667 164.859469 
L 204.176667 175.157625 
" style="fill:none;stroke:#000000;stroke-linecap:square;"/>
   </g>
   <g id="line2d_63">
    <path clip-path="url(#pd35bc16b94)" d="M 204.176667 152.427657 
L 204.176667 146.883055 
" style="fill:none;stroke:#000000;stroke-linecap:square;"/>
   </g>
   <g id="line2d_64">
    <path clip-path="url(#pd35bc16b94)" d="M 201.593056 175.157625 
L 206.760278 175.157625 
" style="fill:none;stroke:#000000;stroke-linecap:square;"/>
   </g>
   <g id="line2d_65">
    <path clip-path="url(#pd35bc16b94)" d="M 201.593056 146.883055 
L 206.760278 146.883055 
" style="fill:none;stroke:#000000;stroke-linecap:square;"/>
   </g>
   <g id="line2d_66">
    <path clip-path="url(#pd35bc16b94)" d="M 219.678333 156.66594 
L 230.012778 156.66594 
L 230.012778 143.965607 
L 219.678333 143.965607 
L 219.678333 156.66594 
" style="fill:none;stroke:#000000;stroke-linecap:square;"/>
   </g>
   <g id="line2d_67">
    <path clip-path="url(#pd35bc16b94)" d="M 224.845556 156.66594 
L 224.845556 167.871263 
" style="fill:none;stroke:#000000;stroke-linecap:square;"/>
   </g>
   <g id="line2d_68">
    <path clip-path="url(#pd35bc16b94)" d="M 224.845556 143.965607 
L 224.845556 135.351152 
" style="fill:none;stroke:#000000;stroke-linecap:square;"/>
   </g>
   <g id="line2d_69">
    <path clip-path="url(#pd35bc16b94)" d="M 222.261944 167.871263 
L 227.429167 167.871263 
" style="fill:none;stroke:#000000;stroke-linecap:square;"/>
   </g>
   <g id="line2d_70">
    <path clip-path="url(#pd35bc16b94)" d="M 222.261944 135.351152 
L 227.429167 135.351152 
" style="fill:none;stroke:#000000;stroke-linecap:square;"/>
   </g>
   <g id="line2d_71">
    <path clip-path="url(#pd35bc16b94)" d="M 240.347222 149.619069 
L 250.681667 149.619069 
L 250.681667 134.248037 
L 240.347222 134.248037 
L 240.347222 149.619069 
" style="fill:none;stroke:#000000;stroke-linecap:square;"/>
   </g>
   <g id="line2d_72">
    <path clip-path="url(#pd35bc16b94)" d="M 245.514444 149.619069 
L 245.514444 161.608184 
" style="fill:none;stroke:#000000;stroke-linecap:square;"/>
   </g>
   <g id="line2d_73">
    <path clip-path="url(#pd35bc16b94)" d="M 245.514444 134.248037 
L 245.514444 127.005219 
" style="fill:none;stroke:#000000;stroke-linecap:square;"/>
   </g>
   <g id="line2d_74">
    <path clip-path="url(#pd35bc16b94)" d="M 242.930833 161.608184 
L 248.098056 161.608184 
" style="fill:none;stroke:#000000;stroke-linecap:square;"/>
   </g>
   <g id="line2d_75">
    <path clip-path="url(#pd35bc16b94)" d="M 242.930833 127.005219 
L 248.098056 127.005219 
" style="fill:none;stroke:#000000;stroke-linecap:square;"/>
   </g>
   <g id="line2d_76">
    <path clip-path="url(#pd35bc16b94)" d="M 261.016111 141.701319 
L 271.350556 141.701319 
L 271.350556 127.143108 
L 261.016111 127.143108 
L 261.016111 141.701319 
" style="fill:none;stroke:#000000;stroke-linecap:square;"/>
   </g>
   <g id="line2d_77">
    <path clip-path="url(#pd35bc16b94)" d="M 266.183333 141.701319 
L 266.183333 157.232012 
" style="fill:none;stroke:#000000;stroke-linecap:square;"/>
   </g>
   <g id="line2d_78">
    <path clip-path="url(#pd35bc16b94)" d="M 266.183333 127.143108 
L 266.183333 118.310933 
" style="fill:none;stroke:#000000;stroke-linecap:square;"/>
   </g>
   <g id="line2d_79">
    <path clip-path="url(#pd35bc16b94)" d="M 263.599722 157.232012 
L 268.766944 157.232012 
" style="fill:none;stroke:#000000;stroke-linecap:square;"/>
   </g>
   <g id="line2d_80">
    <path clip-path="url(#pd35bc16b94)" d="M 263.599722 118.310933 
L 268.766944 118.310933 
" style="fill:none;stroke:#000000;stroke-linecap:square;"/>
   </g>
   <g id="line2d_81">
    <path clip-path="url(#pd35bc16b94)" d="M 281.685 135.380181 
L 292.019444 135.380181 
L 292.019444 119.392276 
L 281.685 119.392276 
L 281.685 135.380181 
" style="fill:none;stroke:#000000;stroke-linecap:square;"/>
   </g>
   <g id="line2d_82">
    <path clip-path="url(#pd35bc16b94)" d="M 286.852222 135.380181 
L 286.852222 146.549217 
" style="fill:none;stroke:#000000;stroke-linecap:square;"/>
   </g>
   <g id="line2d_83">
    <path clip-path="url(#pd35bc16b94)" d="M 286.852222 119.392276 
L 286.852222 108.368387 
" style="fill:none;stroke:#000000;stroke-linecap:square;"/>
   </g>
   <g id="line2d_84">
    <path clip-path="url(#pd35bc16b94)" d="M 284.268611 146.549217 
L 289.435833 146.549217 
" style="fill:none;stroke:#000000;stroke-linecap:square;"/>
   </g>
   <g id="line2d_85">
    <path clip-path="url(#pd35bc16b94)" d="M 284.268611 108.368387 
L 289.435833 108.368387 
" style="fill:none;stroke:#000000;stroke-linecap:square;"/>
   </g>
   <g id="line2d_86">
    <path clip-path="url(#pd35bc16b94)" d="M 302.353889 126.221427 
L 312.688333 126.221427 
L 312.688333 110.981027 
L 302.353889 110.981027 
L 302.353889 126.221427 
" style="fill:none;stroke:#000000;stroke-linecap:square;"/>
   </g>
   <g id="line2d_87">
    <path clip-path="url(#pd35bc16b94)" d="M 307.521111 126.221427 
L 307.521111 140.111963 
" style="fill:none;stroke:#000000;stroke-linecap:square;"/>
   </g>
   <g id="line2d_88">
    <path clip-path="url(#pd35bc16b94)" d="M 307.521111 110.981027 
L 307.521111 101.502949 
" style="fill:none;stroke:#000000;stroke-linecap:square;"/>
   </g>
   <g id="line2d_89">
    <path clip-path="url(#pd35bc16b94)" d="M 304.9375 140.111963 
L 310.104722 140.111963 
" style="fill:none;stroke:#000000;stroke-linecap:square;"/>
   </g>
   <g id="line2d_90">
    <path clip-path="url(#pd35bc16b94)" d="M 304.9375 101.502949 
L 310.104722 101.502949 
" style="fill:none;stroke:#000000;stroke-linecap:square;"/>
   </g>
   <g id="line2d_91">
    <path clip-path="url(#pd35bc16b94)" d="M 323.022778 120.887287 
L 333.357222 120.887287 
L 333.357222 103.919641 
L 323.022778 103.919641 
L 323.022778 120.887287 
" style="fill:none;stroke:#000000;stroke-linecap:square;"/>
   </g>
   <g id="line2d_92">
    <path clip-path="url(#pd35bc16b94)" d="M 328.19 120.887287 
L 328.19 131.526537 
" style="fill:none;stroke:#000000;stroke-linecap:square;"/>
   </g>
   <g id="line2d_93">
    <path clip-path="url(#pd35bc16b94)" d="M 328.19 103.919641 
L 328.19 93.817433 
" style="fill:none;stroke:#000000;stroke-linecap:square;"/>
   </g>
   <g id="line2d_94">
    <path clip-path="url(#pd35bc16b94)" d="M 325.606389 131.526537 
L 330.773611 131.526537 
" style="fill:none;stroke:#000000;stroke-linecap:square;"/>
   </g>
   <g id="line2d_95">
    <path clip-path="url(#pd35bc16b94)" d="M 325.606389 93.817433 
L 330.773611 93.817433 
" style="fill:none;stroke:#000000;stroke-linecap:square;"/>
   </g>
   <g id="line2d_96">
    <path clip-path="url(#pd35bc16b94)" d="M 343.691667 115.037876 
L 354.026111 115.037876 
L 354.026111 97.344497 
L 343.691667 97.344497 
L 343.691667 115.037876 
" style="fill:none;stroke:#000000;stroke-linecap:square;"/>
   </g>
   <g id="line2d_97">
    <path clip-path="url(#pd35bc16b94)" d="M 348.858889 115.037876 
L 348.858889 128.130105 
" style="fill:none;stroke:#000000;stroke-linecap:square;"/>
   </g>
   <g id="line2d_98">
    <path clip-path="url(#pd35bc16b94)" d="M 348.858889 97.344497 
L 348.858889 85.587617 
" style="fill:none;stroke:#000000;stroke-linecap:square;"/>
   </g>
   <g id="line2d_99">
    <path clip-path="url(#pd35bc16b94)" d="M 346.275278 128.130105 
L 351.4425 128.130105 
" style="fill:none;stroke:#000000;stroke-linecap:square;"/>
   </g>
   <g id="line2d_100">
    <path clip-path="url(#pd35bc16b94)" d="M 346.275278 85.587617 
L 351.4425 85.587617 
" style="fill:none;stroke:#000000;stroke-linecap:square;"/>
   </g>
   <g id="line2d_101">
    <path clip-path="url(#pd35bc16b94)" d="M 364.360556 107.874888 
L 374.695 107.874888 
L 374.695 90.69678 
L 364.360556 90.69678 
L 364.360556 107.874888 
" style="fill:none;stroke:#000000;stroke-linecap:square;"/>
   </g>
   <g id="line2d_102">
    <path clip-path="url(#pd35bc16b94)" d="M 369.527778 107.874888 
L 369.527778 122.687105 
" style="fill:none;stroke:#000000;stroke-linecap:square;"/>
   </g>
   <g id="line2d_103">
    <path clip-path="url(#pd35bc16b94)" d="M 369.527778 90.69678 
L 369.527778 81.937179 
" style="fill:none;stroke:#000000;stroke-linecap:square;"/>
   </g>
   <g id="line2d_104">
    <path clip-path="url(#pd35bc16b94)" d="M 366.944167 122.687105 
L 372.111389 122.687105 
" style="fill:none;stroke:#000000;stroke-linecap:square;"/>
   </g>
   <g id="line2d_105">
    <path clip-path="url(#pd35bc16b94)" d="M 366.944167 81.937179 
L 372.111389 81.937179 
" style="fill:none;stroke:#000000;stroke-linecap:square;"/>
   </g>
   <g id="line2d_106">
    <path clip-path="url(#pd35bc16b94)" d="M 385.029444 99.775704 
L 395.363889 99.775704 
L 395.363889 81.980723 
L 385.029444 81.980723 
L 385.029444 99.775704 
" style="fill:none;stroke:#000000;stroke-linecap:square;"/>
   </g>
   <g id="line2d_107">
    <path clip-path="url(#pd35bc16b94)" d="M 390.196667 99.775704 
L 390.196667 115.095935 
" style="fill:none;stroke:#000000;stroke-linecap:square;"/>
   </g>
   <g id="line2d_108">
    <path clip-path="url(#pd35bc16b94)" d="M 390.196667 81.980723 
L 390.196667 70.862488 
" style="fill:none;stroke:#000000;stroke-linecap:square;"/>
   </g>
   <g id="line2d_109">
    <path clip-path="url(#pd35bc16b94)" d="M 387.613056 115.095935 
L 392.780278 115.095935 
" style="fill:none;stroke:#000000;stroke-linecap:square;"/>
   </g>
   <g id="line2d_110">
    <path clip-path="url(#pd35bc16b94)" d="M 387.613056 70.862488 
L 392.780278 70.862488 
" style="fill:none;stroke:#000000;stroke-linecap:square;"/>
   </g>
   <g id="line2d_111">
    <path clip-path="url(#pd35bc16b94)" d="M 405.698333 96.952601 
L 416.032778 96.952601 
L 416.032778 76.835273 
L 405.698333 76.835273 
L 405.698333 96.952601 
" style="fill:none;stroke:#000000;stroke-linecap:square;"/>
   </g>
   <g id="line2d_112">
    <path clip-path="url(#pd35bc16b94)" d="M 410.865556 96.952601 
L 410.865556 113.042109 
" style="fill:none;stroke:#000000;stroke-linecap:square;"/>
   </g>
   <g id="line2d_113">
    <path clip-path="url(#pd35bc16b94)" d="M 410.865556 76.835273 
L 410.865556 67.669261 
" style="fill:none;stroke:#000000;stroke-linecap:square;"/>
   </g>
   <g id="line2d_114">
    <path clip-path="url(#pd35bc16b94)" d="M 408.281944 113.042109 
L 413.449167 113.042109 
" style="fill:none;stroke:#000000;stroke-linecap:square;"/>
   </g>
   <g id="line2d_115">
    <path clip-path="url(#pd35bc16b94)" d="M 408.281944 67.669261 
L 413.449167 67.669261 
" style="fill:none;stroke:#000000;stroke-linecap:square;"/>
   </g>
   <g id="line2d_116">
    <path clip-path="url(#pd35bc16b94)" d="M 38.825556 265.620121 
L 42.792312 260.757967 
L 46.759068 256.273889 
L 50.725825 252.091387 
L 54.692581 248.156735 
L 58.659338 244.430484 
L 62.626094 240.882657 
L 66.592851 237.489841 
L 70.559607 234.233336 
L 74.526364 231.097924 
L 78.49312 228.071024 
L 82.459877 225.142093 
L 86.426633 222.302193 
L 90.393389 219.543668 
L 94.360146 216.859898 
L 98.326902 214.245118 
L 102.293659 211.694264 
L 106.260415 209.202866 
L 110.227172 206.766951 
L 114.193928 204.382969 
L 118.160685 202.047733 
L 122.127441 199.758371 
L 126.094198 197.512281 
L 130.060954 195.307097 
L 134.02771 193.140664 
L 137.994467 191.011007 
L 141.961223 188.916315 
L 145.92798 186.85492 
L 149.894736 184.825283 
L 153.861493 182.825979 
L 157.828249 180.85569 
L 161.795006 178.913185 
L 165.761762 176.997323 
L 169.728519 175.107037 
L 173.695275 173.241327 
L 177.662031 171.399261 
L 181.628788 169.579961 
L 185.595544 167.782604 
L 189.562301 166.006414 
L 193.529057 164.250661 
L 197.495814 162.514654 
L 201.46257 160.797743 
L 205.429327 159.09931 
L 209.396083 157.418772 
L 213.36284 155.755575 
L 217.329596 154.109193 
L 221.296352 152.479125 
L 225.263109 150.864896 
L 229.229865 149.266054 
L 233.196622 147.682166 
L 237.163378 146.11282 
L 241.130135 144.557624 
L 245.096891 143.016201 
L 249.063648 141.488192 
L 253.030404 139.973252 
L 256.99716 138.471052 
L 260.963917 136.981275 
L 264.930673 135.503619 
L 268.89743 134.037792 
L 272.864186 132.583515 
L 276.830943 131.140519 
L 280.797699 129.708545 
L 284.764456 128.287344 
L 288.731212 126.876678 
L 292.697969 125.476315 
L 296.664725 124.086032 
L 300.631481 122.705616 
L 304.598238 121.334858 
L 308.564994 119.97356 
L 312.531751 118.621527 
L 316.498507 117.278573 
L 320.465264 115.944519 
L 324.43202 114.619188 
L 328.398777 113.302412 
L 332.365533 111.994028 
L 336.33229 110.693877 
L 340.299046 109.401806 
L 344.265802 108.117666 
L 348.232559 106.841312 
L 352.199315 105.572605 
L 356.166072 104.311409 
L 360.132828 103.057592 
L 364.099585 101.811025 
L 368.066341 100.571586 
L 372.033098 99.339152 
L 375.999854 98.113607 
L 379.966611 96.894835 
L 383.933367 95.682727 
L 387.900123 94.477173 
L 391.86688 93.278069 
L 395.833636 92.085313 
L 399.800393 90.898804 
L 403.767149 89.718445 
L 407.733906 88.544142 
L 411.700662 87.375802 
L 415.667419 86.213336 
L 419.634175 85.056656 
L 423.600932 83.905676 
L 427.567688 82.760312 
L 431.534444 81.620484 
" style="fill:none;stroke:#4c72b0;stroke-linecap:square;stroke-width:1.5;"/>
   </g>
   <g id="line2d_117">
    <path clip-path="url(#pd35bc16b94)" d="M 54.327222 237.403773 
L 64.661667 237.403773 
" style="fill:none;stroke:#55a868;stroke-linecap:square;"/>
   </g>
   <g id="line2d_118">
    <path clip-path="url(#pd35bc16b94)" d="M 74.996111 223.295517 
L 85.330556 223.295517 
" style="fill:none;stroke:#55a868;stroke-linecap:square;"/>
   </g>
   <g id="line2d_119">
    <path clip-path="url(#pd35bc16b94)" d="M 95.665 209.368695 
L 105.999444 209.368695 
" style="fill:none;stroke:#55a868;stroke-linecap:square;"/>
   </g>
   <g id="line2d_120">
    <path clip-path="url(#pd35bc16b94)" d="M 116.333889 197.437639 
L 126.668333 197.437639 
" style="fill:none;stroke:#55a868;stroke-linecap:square;"/>
   </g>
   <g id="line2d_121">
    <path clip-path="url(#pd35bc16b94)" d="M 137.002778 186.268603 
L 147.337222 186.268603 
" style="fill:none;stroke:#55a868;stroke-linecap:square;"/>
   </g>
   <g id="line2d_122">
    <path clip-path="url(#pd35bc16b94)" d="M 157.671667 175.266485 
L 168.006111 175.266485 
" style="fill:none;stroke:#55a868;stroke-linecap:square;"/>
   </g>
   <g id="line2d_123">
    <path clip-path="url(#pd35bc16b94)" d="M 178.340556 166.216591 
L 188.675 166.216591 
" style="fill:none;stroke:#55a868;stroke-linecap:square;"/>
   </g>
   <g id="line2d_124">
    <path clip-path="url(#pd35bc16b94)" d="M 199.009444 158.066605 
L 209.343889 158.066605 
" style="fill:none;stroke:#55a868;stroke-linecap:square;"/>
   </g>
   <g id="line2d_125">
    <path clip-path="url(#pd35bc16b94)" d="M 219.678333 150.054509 
L 230.012778 150.054509 
" style="fill:none;stroke:#55a868;stroke-linecap:square;"/>
   </g>
   <g id="line2d_126">
    <path clip-path="url(#pd35bc16b94)" d="M 240.347222 140.866725 
L 250.681667 140.866725 
" style="fill:none;stroke:#55a868;stroke-linecap:square;"/>
   </g>
   <g id="line2d_127">
    <path clip-path="url(#pd35bc16b94)" d="M 261.016111 133.979516 
L 271.350556 133.979516 
" style="fill:none;stroke:#55a868;stroke-linecap:square;"/>
   </g>
   <g id="line2d_128">
    <path clip-path="url(#pd35bc16b94)" d="M 281.685 127.114079 
L 292.019444 127.114079 
" style="fill:none;stroke:#55a868;stroke-linecap:square;"/>
   </g>
   <g id="line2d_129">
    <path clip-path="url(#pd35bc16b94)" d="M 302.353889 118.412536 
L 312.688333 118.412536 
" style="fill:none;stroke:#55a868;stroke-linecap:square;"/>
   </g>
   <g id="line2d_130">
    <path clip-path="url(#pd35bc16b94)" d="M 323.022778 112.200259 
L 333.357222 112.200259 
" style="fill:none;stroke:#55a868;stroke-linecap:square;"/>
   </g>
   <g id="line2d_131">
    <path clip-path="url(#pd35bc16b94)" d="M 343.691667 105.342079 
L 354.026111 105.342079 
" style="fill:none;stroke:#55a868;stroke-linecap:square;"/>
   </g>
   <g id="line2d_132">
    <path clip-path="url(#pd35bc16b94)" d="M 364.360556 98.650817 
L 374.695 98.650817 
" style="fill:none;stroke:#55a868;stroke-linecap:square;"/>
   </g>
   <g id="line2d_133">
    <path clip-path="url(#pd35bc16b94)" d="M 385.029444 90.762096 
L 395.363889 90.762096 
" style="fill:none;stroke:#55a868;stroke-linecap:square;"/>
   </g>
   <g id="line2d_134">
    <path clip-path="url(#pd35bc16b94)" d="M 405.698333 85.232008 
L 416.032778 85.232008 
" style="fill:none;stroke:#55a868;stroke-linecap:square;"/>
   </g>
   <g id="patch_3">
    <path d="M 49.16 246.04 
L 49.16 28.32 
" style="fill:none;stroke:#000000;stroke-linecap:square;stroke-linejoin:miter;stroke-width:0.8;"/>
   </g>
   <g id="patch_4">
    <path d="M 421.2 246.04 
L 421.2 28.32 
" style="fill:none;stroke:#000000;stroke-linecap:square;stroke-linejoin:miter;stroke-width:0.8;"/>
   </g>
   <g id="patch_5">
    <path d="M 49.16 246.04 
L 421.2 246.04 
" style="fill:none;stroke:#000000;stroke-linecap:square;stroke-linejoin:miter;stroke-width:0.8;"/>
   </g>
   <g id="patch_6">
    <path d="M 49.16 28.32 
L 421.2 28.32 
" style="fill:none;stroke:#000000;stroke-linecap:square;stroke-linejoin:miter;stroke-width:0.8;"/>
   </g>
   <g id="text_28">
    <!-- $Q(K)$ vs Sparsity, No Optimization ($n = 128$) -->
    <defs>
     <path d="M 2.984375 54.6875 
L 12.5 54.6875 
L 29.59375 8.796875 
L 46.6875 54.6875 
L 56.203125 54.6875 
L 35.6875 0 
L 23.484375 0 
z
" id="DejaVuSans-118"/>
     <path d="M 53.515625 70.515625 
L 53.515625 60.890625 
Q 47.90625 63.578125 42.921875 64.890625 
Q 37.9375 66.21875 33.296875 66.21875 
Q 25.25 66.21875 20.875 63.09375 
Q 16.5 59.96875 16.5 54.203125 
Q 16.5 49.359375 19.40625 46.890625 
Q 22.3125 44.4375 30.421875 42.921875 
L 36.375 41.703125 
Q 47.40625 39.59375 52.65625 34.296875 
Q 57.90625 29 57.90625 20.125 
Q 57.90625 9.515625 50.796875 4.046875 
Q 43.703125 -1.421875 29.984375 -1.421875 
Q 24.8125 -1.421875 18.96875 -0.25 
Q 13.140625 0.921875 6.890625 3.21875 
L 6.890625 13.375 
Q 12.890625 10.015625 18.65625 8.296875 
Q 24.421875 6.59375 29.984375 6.59375 
Q 38.421875 6.59375 43.015625 9.90625 
Q 47.609375 13.234375 47.609375 19.390625 
Q 47.609375 24.75 44.3125 27.78125 
Q 41.015625 30.8125 33.5 32.328125 
L 27.484375 33.5 
Q 16.453125 35.6875 11.515625 40.375 
Q 6.59375 45.0625 6.59375 53.421875 
Q 6.59375 63.09375 13.40625 68.65625 
Q 20.21875 74.21875 32.171875 74.21875 
Q 37.3125 74.21875 42.625 73.28125 
Q 47.953125 72.359375 53.515625 70.515625 
z
" id="DejaVuSans-83"/>
     <path d="M 18.109375 8.203125 
L 18.109375 -20.796875 
L 9.078125 -20.796875 
L 9.078125 54.6875 
L 18.109375 54.6875 
L 18.109375 46.390625 
Q 20.953125 51.265625 25.265625 53.625 
Q 29.59375 56 35.59375 56 
Q 45.5625 56 51.78125 48.09375 
Q 58.015625 40.1875 58.015625 27.296875 
Q 58.015625 14.40625 51.78125 6.484375 
Q 45.5625 -1.421875 35.59375 -1.421875 
Q 29.59375 -1.421875 25.265625 0.953125 
Q 20.953125 3.328125 18.109375 8.203125 
z
M 48.6875 27.296875 
Q 48.6875 37.203125 44.609375 42.84375 
Q 40.53125 48.484375 33.40625 48.484375 
Q 26.265625 48.484375 22.1875 42.84375 
Q 18.109375 37.203125 18.109375 27.296875 
Q 18.109375 17.390625 22.1875 11.75 
Q 26.265625 6.109375 33.40625 6.109375 
Q 40.53125 6.109375 44.609375 11.75 
Q 48.6875 17.390625 48.6875 27.296875 
z
" id="DejaVuSans-112"/>
     <path d="M 34.28125 27.484375 
Q 23.390625 27.484375 19.1875 25 
Q 14.984375 22.515625 14.984375 16.5 
Q 14.984375 11.71875 18.140625 8.90625 
Q 21.296875 6.109375 26.703125 6.109375 
Q 34.1875 6.109375 38.703125 11.40625 
Q 43.21875 16.703125 43.21875 25.484375 
L 43.21875 27.484375 
z
M 52.203125 31.203125 
L 52.203125 0 
L 43.21875 0 
L 43.21875 8.296875 
Q 40.140625 3.328125 35.546875 0.953125 
Q 30.953125 -1.421875 24.3125 -1.421875 
Q 15.921875 -1.421875 10.953125 3.296875 
Q 6 8.015625 6 15.921875 
Q 6 25.140625 12.171875 29.828125 
Q 18.359375 34.515625 30.609375 34.515625 
L 43.21875 34.515625 
L 43.21875 35.40625 
Q 43.21875 41.609375 39.140625 45 
Q 35.0625 48.390625 27.6875 48.390625 
Q 23 48.390625 18.546875 47.265625 
Q 14.109375 46.140625 10.015625 43.890625 
L 10.015625 52.203125 
Q 14.9375 54.109375 19.578125 55.046875 
Q 24.21875 56 28.609375 56 
Q 40.484375 56 46.34375 49.84375 
Q 52.203125 43.703125 52.203125 31.203125 
z
" id="DejaVuSans-97"/>
     <path d="M 32.171875 -5.078125 
Q 28.375 -14.84375 24.75 -17.8125 
Q 21.140625 -20.796875 15.09375 -20.796875 
L 7.90625 -20.796875 
L 7.90625 -13.28125 
L 13.1875 -13.28125 
Q 16.890625 -13.28125 18.9375 -11.515625 
Q 21 -9.765625 23.484375 -3.21875 
L 25.09375 0.875 
L 2.984375 54.6875 
L 12.5 54.6875 
L 29.59375 11.921875 
L 46.6875 54.6875 
L 56.203125 54.6875 
z
" id="DejaVuSans-121"/>
     <path d="M 11.71875 12.40625 
L 22.015625 12.40625 
L 22.015625 4 
L 14.015625 -11.625 
L 7.71875 -11.625 
L 11.71875 4 
z
" id="DejaVuSans-44"/>
     <path d="M 9.8125 72.90625 
L 23.09375 72.90625 
L 55.421875 11.921875 
L 55.421875 72.90625 
L 64.984375 72.90625 
L 64.984375 0 
L 51.703125 0 
L 19.390625 60.984375 
L 19.390625 0 
L 9.8125 0 
z
" id="DejaVuSans-78"/>
     <path d="M 39.40625 66.21875 
Q 28.65625 66.21875 22.328125 58.203125 
Q 16.015625 50.203125 16.015625 36.375 
Q 16.015625 22.609375 22.328125 14.59375 
Q 28.65625 6.59375 39.40625 6.59375 
Q 50.140625 6.59375 56.421875 14.59375 
Q 62.703125 22.609375 62.703125 36.375 
Q 62.703125 50.203125 56.421875 58.203125 
Q 50.140625 66.21875 39.40625 66.21875 
z
M 39.40625 74.21875 
Q 54.734375 74.21875 63.90625 63.9375 
Q 73.09375 53.65625 73.09375 36.375 
Q 73.09375 19.140625 63.90625 8.859375 
Q 54.734375 -1.421875 39.40625 -1.421875 
Q 24.03125 -1.421875 14.8125 8.828125 
Q 5.609375 19.09375 5.609375 36.375 
Q 5.609375 53.65625 14.8125 63.9375 
Q 24.03125 74.21875 39.40625 74.21875 
z
" id="DejaVuSans-79"/>
     <path d="M 52 44.1875 
Q 55.375 50.25 60.0625 53.125 
Q 64.75 56 71.09375 56 
Q 79.640625 56 84.28125 50.015625 
Q 88.921875 44.046875 88.921875 33.015625 
L 88.921875 0 
L 79.890625 0 
L 79.890625 32.71875 
Q 79.890625 40.578125 77.09375 44.375 
Q 74.3125 48.1875 68.609375 48.1875 
Q 61.625 48.1875 57.5625 43.546875 
Q 53.515625 38.921875 53.515625 30.90625 
L 53.515625 0 
L 44.484375 0 
L 44.484375 32.71875 
Q 44.484375 40.625 41.703125 44.40625 
Q 38.921875 48.1875 33.109375 48.1875 
Q 26.21875 48.1875 22.15625 43.53125 
Q 18.109375 38.875 18.109375 30.90625 
L 18.109375 0 
L 9.078125 0 
L 9.078125 54.6875 
L 18.109375 54.6875 
L 18.109375 46.1875 
Q 21.1875 51.21875 25.484375 53.609375 
Q 29.78125 56 35.6875 56 
Q 41.65625 56 45.828125 52.96875 
Q 50 49.953125 52 44.1875 
z
" id="DejaVuSans-109"/>
     <path d="M 5.515625 54.6875 
L 48.1875 54.6875 
L 48.1875 46.484375 
L 14.40625 7.171875 
L 48.1875 7.171875 
L 48.1875 0 
L 4.296875 0 
L 4.296875 8.203125 
L 38.09375 47.515625 
L 5.515625 47.515625 
z
" id="DejaVuSans-122"/>
     <path d="M 55.71875 33.015625 
L 49.3125 0 
L 40.28125 0 
L 46.6875 32.671875 
Q 47.125 34.96875 47.359375 36.71875 
Q 47.609375 38.484375 47.609375 39.5 
Q 47.609375 43.609375 45.015625 45.890625 
Q 42.4375 48.1875 37.796875 48.1875 
Q 30.5625 48.1875 25.34375 43.375 
Q 20.125 38.578125 18.5 30.328125 
L 12.5 0 
L 3.515625 0 
L 14.109375 54.6875 
L 23.09375 54.6875 
L 21.296875 46.09375 
Q 25.046875 50.828125 30.3125 53.40625 
Q 35.59375 56 41.40625 56 
Q 48.640625 56 52.609375 52.09375 
Q 56.59375 48.1875 56.59375 41.109375 
Q 56.59375 39.359375 56.375 37.359375 
Q 56.15625 35.359375 55.71875 33.015625 
z
" id="DejaVuSans-Oblique-110"/>
     <path d="M 10.59375 45.40625 
L 73.1875 45.40625 
L 73.1875 37.203125 
L 10.59375 37.203125 
z
M 10.59375 25.484375 
L 73.1875 25.484375 
L 73.1875 17.1875 
L 10.59375 17.1875 
z
" id="DejaVuSans-61"/>
    </defs>
    <g transform="translate(105.4 22.32)scale(0.12 -0.12)">
     <use transform="translate(0 0.015625)" xlink:href="#DejaVuSans-Oblique-81"/>
     <use transform="translate(78.710938 0.015625)" xlink:href="#DejaVuSans-40"/>
     <use transform="translate(117.724609 0.015625)" xlink:href="#DejaVuSans-Oblique-75"/>
     <use transform="translate(183.300781 0.015625)" xlink:href="#DejaVuSans-41"/>
     <use transform="translate(222.314453 0.015625)" xlink:href="#DejaVuSans-32"/>
     <use transform="translate(254.101562 0.015625)" xlink:href="#DejaVuSans-118"/>
     <use transform="translate(313.28125 0.015625)" xlink:href="#DejaVuSans-115"/>
     <use transform="translate(365.380859 0.015625)" xlink:href="#DejaVuSans-32"/>
     <use transform="translate(397.167969 0.015625)" xlink:href="#DejaVuSans-83"/>
     <use transform="translate(460.644531 0.015625)" xlink:href="#DejaVuSans-112"/>
     <use transform="translate(524.121094 0.015625)" xlink:href="#DejaVuSans-97"/>
     <use transform="translate(585.400391 0.015625)" xlink:href="#DejaVuSans-114"/>
     <use transform="translate(626.513672 0.015625)" xlink:href="#DejaVuSans-115"/>
     <use transform="translate(678.613281 0.015625)" xlink:href="#DejaVuSans-105"/>
     <use transform="translate(706.396484 0.015625)" xlink:href="#DejaVuSans-116"/>
     <use transform="translate(745.605469 0.015625)" xlink:href="#DejaVuSans-121"/>
     <use transform="translate(804.785156 0.015625)" xlink:href="#DejaVuSans-44"/>
     <use transform="translate(836.572266 0.015625)" xlink:href="#DejaVuSans-32"/>
     <use transform="translate(868.359375 0.015625)" xlink:href="#DejaVuSans-78"/>
     <use transform="translate(943.164062 0.015625)" xlink:href="#DejaVuSans-111"/>
     <use transform="translate(1004.345703 0.015625)" xlink:href="#DejaVuSans-32"/>
     <use transform="translate(1036.132812 0.015625)" xlink:href="#DejaVuSans-79"/>
     <use transform="translate(1114.84375 0.015625)" xlink:href="#DejaVuSans-112"/>
     <use transform="translate(1178.320312 0.015625)" xlink:href="#DejaVuSans-116"/>
     <use transform="translate(1217.529297 0.015625)" xlink:href="#DejaVuSans-105"/>
     <use transform="translate(1245.3125 0.015625)" xlink:href="#DejaVuSans-109"/>
     <use transform="translate(1342.724609 0.015625)" xlink:href="#DejaVuSans-105"/>
     <use transform="translate(1370.507812 0.015625)" xlink:href="#DejaVuSans-122"/>
     <use transform="translate(1422.998047 0.015625)" xlink:href="#DejaVuSans-97"/>
     <use transform="translate(1484.277344 0.015625)" xlink:href="#DejaVuSans-116"/>
     <use transform="translate(1523.486328 0.015625)" xlink:href="#DejaVuSans-105"/>
     <use transform="translate(1551.269531 0.015625)" xlink:href="#DejaVuSans-111"/>
     <use transform="translate(1612.451172 0.015625)" xlink:href="#DejaVuSans-110"/>
     <use transform="translate(1675.830078 0.015625)" xlink:href="#DejaVuSans-32"/>
     <use transform="translate(1707.617188 0.015625)" xlink:href="#DejaVuSans-40"/>
     <use transform="translate(1746.630859 0.015625)" xlink:href="#DejaVuSans-Oblique-110"/>
     <use transform="translate(1829.492188 0.015625)" xlink:href="#DejaVuSans-61"/>
     <use transform="translate(1932.763672 0.015625)" xlink:href="#DejaVuSans-49"/>
     <use transform="translate(1996.386719 0.015625)" xlink:href="#DejaVuSans-50"/>
     <use transform="translate(2060.009766 0.015625)" xlink:href="#DejaVuSans-56"/>
     <use transform="translate(2123.632812 0.015625)" xlink:href="#DejaVuSans-41"/>
    </g>
   </g>
  </g>
 </g>
 <defs>
  <clipPath id="pd35bc16b94">
   <rect height="217.72" width="372.04" x="49.16" y="28.32"/>
  </clipPath>
 </defs>
</svg>
